<?xml version="1.0" encoding="UTF-8"?>
<svg width="106px" height="118px" viewBox="0 0 106 118" version="1.1" xmlns="http://www.w3.org/2000/svg" xmlns:xlink="http://www.w3.org/1999/xlink">
    <!-- Generator: sketchtool 47 (45396) - http://www.bohemiancoding.com/sketch -->
    <title>0B461DD0-5D10-495C-9A2F-A5EF4BD1A032</title>
    <desc>Created with sketchtool.</desc>
    <defs>
        <polygon id="path-1" points="20.819 69.1613 20.819 0.9203 0.8822 0.9203 0.8822 69.1613 20.819 69.1613"></polygon>
    </defs>
    <g id="Page-1" stroke="none" stroke-width="1" fill="none" fill-rule="evenodd">
        <g id="get-Hlper-" transform="translate(-127.000000, -33.000000)">
            <g id="logo-Hlpr" transform="translate(127.000000, 32.000000)">
                <path d="M42.4326,114.3841 C42.4326,114.3841 42.8056,114.5541 43.4496,114.8631 C43.7666,115.0331 44.1716,115.1751 44.6266,115.3511 C44.8566,115.4351 45.0906,115.5381 45.3556,115.6221 C45.6226,115.7051 45.9026,115.7921 46.1956,115.8831 C46.7706,116.0841 47.4346,116.2121 48.1146,116.3901 C48.4546,116.4801 48.8226,116.5251 49.1866,116.5981 C49.5556,116.6591 49.9246,116.7481 50.3136,116.7861 C50.6996,116.8351 51.0916,116.8851 51.4896,116.9361 C51.8876,116.9781 52.2956,116.9961 52.7026,117.0321 C52.9076,117.0481 53.1126,117.0631 53.3176,117.0791 C53.5246,117.0841 53.7316,117.0881 53.9396,117.0931 C54.3546,117.0981 54.7716,117.1211 55.1876,117.1121 C55.6046,117.1021 56.0216,117.0921 56.4366,117.0821 L56.7476,117.0741 L57.0576,117.0491 C57.2626,117.0331 57.4686,117.0171 57.6726,117.0011 C58.4936,116.9551 59.2876,116.8311 60.0626,116.7391 C60.4466,116.6781 60.8196,116.6001 61.1886,116.5381 C61.3726,116.5061 61.5556,116.4741 61.7356,116.4421 C61.9146,116.4091 62.0876,116.3611 62.2606,116.3221 C62.6056,116.2411 62.9406,116.1611 63.2656,116.0851 C63.5916,116.0111 63.8916,115.9051 64.1886,115.8221 C64.4836,115.7351 64.7666,115.6511 65.0366,115.5711 C65.2976,115.4771 65.5466,115.3881 65.7796,115.3041 C66.0136,115.2201 66.2336,115.1411 66.4356,115.0691 C66.6396,114.9961 66.8106,114.9071 66.9736,114.8391 C67.6206,114.5541 67.9976,114.3961 67.9976,114.3961 L68.0176,114.3881 C68.1406,114.3371 68.2906,114.3771 68.3536,114.4771 C68.4106,114.5691 68.3746,114.6791 68.2746,114.7371 C68.2746,114.7371 67.9206,114.9391 67.2886,115.2821 C67.1286,115.3651 66.9596,115.4701 66.7586,115.5591 C66.5586,115.6491 66.3416,115.7461 66.1096,115.8501 C65.8776,115.9541 65.6296,116.0651 65.3686,116.1811 C65.0996,116.2831 64.8116,116.3821 64.5136,116.4891 C64.2126,116.5911 63.9066,116.7171 63.5746,116.8111 C63.2426,116.9041 62.8986,117.0001 62.5446,117.0991 C62.3666,117.1471 62.1886,117.2031 62.0046,117.2451 C61.8186,117.2851 61.6316,117.3251 61.4416,117.3661 C61.0616,117.4471 60.6736,117.5321 60.2756,117.6061 C59.4716,117.7171 58.6466,117.8771 57.7906,117.9281 C57.5776,117.9461 57.3636,117.9651 57.1486,117.9831 L56.8266,118.0111 L56.5016,118.0221 C56.0676,118.0361 55.6326,118.0501 55.1976,118.0641 C54.7616,118.0701 54.3266,118.0441 53.8926,118.0361 C53.6756,118.0301 53.4596,118.0231 53.2436,118.0171 C53.0286,117.9991 52.8146,117.9821 52.6006,117.9641 C52.1746,117.9261 51.7496,117.8981 51.3346,117.8451 C50.9206,117.7831 50.5116,117.7221 50.1096,117.6621 C49.7056,117.6121 49.3186,117.5171 48.9376,117.4361 C48.5596,117.3471 48.1816,117.2861 47.8286,117.1791 C47.1226,116.9721 46.4446,116.8031 45.8566,116.5631 C45.5596,116.4521 45.2746,116.3451 45.0036,116.2441 C44.7356,116.1371 44.4916,116.0091 44.2586,115.9031 C43.7936,115.6831 43.3826,115.5001 43.0916,115.3131 C42.4846,114.9581 42.1426,114.7491 42.1426,114.7491 C42.0236,114.6771 41.9996,114.5401 42.0876,114.4441 C42.1696,114.3551 42.3176,114.3311 42.4326,114.3841" id="Fill-1" fill="#FFFFFF"></path>
                <path d="M15.0601,91.246 C15.0601,91.246 15.3371,91.471 15.8561,91.892 C16.1151,92.104 16.4331,92.366 16.8071,92.673 C16.9941,92.826 17.1951,92.991 17.4101,93.167 C17.6241,93.328 17.8521,93.499 18.0931,93.68 C18.5721,94.04 19.1021,94.438 19.6791,94.873 C20.2881,95.28 20.9321,95.735 21.6241,96.214 C21.9641,96.462 22.3391,96.684 22.7181,96.921 C23.0971,97.156 23.4871,97.399 23.8871,97.648 C24.2831,97.903 24.7031,98.141 25.1331,98.384 C25.5621,98.628 26.0011,98.878 26.4481,99.133 C26.8891,99.4 27.3731,99.613 27.8471,99.862 C28.3241,100.103 28.8111,100.348 29.3061,100.597 C29.8111,100.825 30.3251,101.056 30.8461,101.291 C31.1061,101.409 31.3681,101.529 31.6321,101.649 C31.8961,101.768 32.1721,101.866 32.4441,101.977 C32.9891,102.196 33.5411,102.417 34.1011,102.641 C34.6631,102.856 35.2441,103.043 35.8241,103.249 C36.1151,103.35 36.4071,103.452 36.7011,103.554 C36.9951,103.655 37.2971,103.736 37.5971,103.829 C38.1981,104.009 38.8051,104.192 39.4171,104.375 C41.8901,105.024 44.4701,105.576 47.1221,105.952 C49.7781,106.294 52.4921,106.494 55.2121,106.509 C57.9311,106.498 60.6451,106.299 63.3031,105.962 C65.9551,105.586 68.5381,105.043 71.0121,104.395 C71.6241,104.212 72.2321,104.031 72.8341,103.852 C73.1341,103.759 73.4371,103.679 73.7311,103.577 C74.0251,103.476 74.3171,103.374 74.6081,103.274 C75.1891,103.068 75.7711,102.883 76.3341,102.668 C76.8941,102.445 77.4471,102.224 77.9921,102.006 C78.2651,101.896 78.5411,101.798 78.8051,101.679 C79.0701,101.559 79.3321,101.441 79.5921,101.323 C80.1141,101.088 80.6291,100.857 81.1341,100.63 C81.6301,100.381 82.1181,100.137 82.5971,99.897 C83.0711,99.649 83.5561,99.437 83.9971,99.171 C85.8011,98.171 87.4231,97.185 88.8311,96.258 C89.5261,95.78 90.1711,95.325 90.7811,94.918 C91.3671,94.479 91.9051,94.075 92.3911,93.711 C92.6351,93.528 92.8661,93.355 93.0831,93.192 C93.2931,93.02 93.4911,92.86 93.6741,92.711 C94.0421,92.411 94.3551,92.156 94.6081,91.949 C95.1201,91.537 95.3931,91.318 95.3931,91.318 L95.4391,91.281 C95.9141,90.899 96.6091,90.974 96.9911,91.45 C97.3351,91.877 97.3081,92.483 96.9531,92.878 C96.9531,92.878 96.7111,93.148 96.2571,93.655 C96.0271,93.908 95.7441,94.219 95.4111,94.585 C95.2441,94.768 95.0671,94.968 94.8711,95.174 C94.6681,95.372 94.4521,95.582 94.2241,95.805 C93.7661,96.25 93.2581,96.743 92.7061,97.28 C92.1301,97.792 91.4931,98.33 90.8171,98.914 C90.4841,99.213 90.1151,99.488 89.7421,99.78 C89.3661,100.072 88.9801,100.371 88.5841,100.679 C88.1941,100.997 87.7661,101.283 87.3301,101.579 C86.8941,101.877 86.4491,102.181 85.9931,102.492 C85.5441,102.815 85.0501,103.085 84.5641,103.393 C84.0731,103.692 83.5731,103.997 83.0641,104.307 C82.5391,104.59 82.0051,104.877 81.4631,105.169 C81.1911,105.315 80.9181,105.461 80.6421,105.609 C80.3651,105.755 80.0771,105.881 79.7911,106.02 C79.2161,106.289 78.6331,106.562 78.0431,106.839 C77.4481,107.104 76.8321,107.34 76.2151,107.597 C75.9061,107.723 75.5951,107.849 75.2831,107.976 C74.9691,108.1 74.6451,108.202 74.3241,108.316 C73.6801,108.539 73.0291,108.764 72.3731,108.991 C71.0391,109.374 69.6911,109.804 68.2911,110.103 C67.9431,110.184 67.5931,110.266 67.2431,110.348 L66.7161,110.47 L66.1841,110.569 C65.4711,110.696 64.7551,110.824 64.0361,110.952 C61.1481,111.392 58.1821,111.619 55.2121,111.648 C52.2421,111.623 49.2751,111.398 46.3861,110.962 C45.6671,110.834 44.9501,110.707 44.2381,110.58 L43.7051,110.482 L43.1781,110.361 C42.8271,110.28 42.4771,110.198 42.1291,110.117 C40.7281,109.823 39.3791,109.391 38.0451,109.01 C37.3881,108.785 36.7361,108.561 36.0911,108.339 C35.7701,108.225 35.4461,108.125 35.1321,108 C34.8201,107.873 34.5081,107.747 34.1991,107.621 C33.5821,107.366 32.9651,107.13 32.3691,106.866 C31.7781,106.59 31.1951,106.318 30.6191,106.049 C30.3331,105.91 30.0441,105.785 29.7671,105.639 C29.4911,105.492 29.2171,105.346 28.9451,105.201 C28.4021,104.909 27.8681,104.622 27.3421,104.34 C26.8321,104.031 26.3311,103.726 25.8391,103.428 C25.3531,103.121 24.8581,102.851 24.4081,102.53 C23.9511,102.219 23.5041,101.916 23.0681,101.619 C22.8501,101.47 22.6341,101.324 22.4221,101.179 C22.2081,101.036 22.0131,100.869 21.8121,100.719 C21.4151,100.412 21.0281,100.113 20.6521,99.822 C20.2771,99.531 19.9071,99.256 19.5731,98.958 C18.8951,98.375 18.2571,97.837 17.6801,97.326 C17.1191,96.784 16.6041,96.286 16.1381,95.836 C15.9071,95.611 15.6881,95.399 15.4821,95.199 C15.2891,94.996 15.1181,94.802 14.9541,94.623 C14.6281,94.265 14.3501,93.96 14.1251,93.713 C13.6781,93.215 13.4401,92.95 13.4401,92.95 C13.0051,92.465 13.0451,91.72 13.5301,91.285 C13.9671,90.892 14.6181,90.887 15.0601,91.246" id="Fill-3" fill="#FFFFFF"></path>
                <path d="M98.7453,95.5433 C98.7453,95.5433 98.6443,95.3813 98.5043,95.0963 C98.4713,95.0253 98.4353,94.9463 98.3953,94.8613 C98.3463,94.7923 98.3023,94.7193 98.2533,94.6443 C98.1583,94.4953 98.0693,94.3373 97.9393,94.1483 C97.8783,94.0573 97.8253,93.9613 97.7653,93.8653 C97.6943,93.7733 97.6313,93.6763 97.5623,93.5793 C97.4453,93.3783 97.2683,93.1973 97.1383,92.9933 C96.9673,92.8093 96.8303,92.6033 96.6523,92.4223 C96.4923,92.2273 96.3053,92.0543 96.1343,91.8673 C95.9453,91.6983 95.7693,91.5153 95.5743,91.3563 C95.3903,91.1833 95.1853,91.0443 95.0003,90.8783 C94.7963,90.7503 94.6143,90.5763 94.4143,90.4603 C94.3173,90.3933 94.2213,90.3303 94.1293,90.2603 C94.0313,90.2013 93.9373,90.1443 93.8463,90.0893 C93.6653,89.9623 93.4873,89.8703 93.3253,89.7753 C93.2443,89.7263 93.1673,89.6833 93.0953,89.6353 C93.0213,89.5963 92.9523,89.5613 92.8913,89.5293 C92.6413,89.3923 92.4853,89.2913 92.4853,89.2913 L92.4133,89.2443 C92.1243,89.0563 92.0423,88.6703 92.2303,88.3813 C92.2953,88.2813 92.3853,88.2053 92.4853,88.1583 C92.4853,88.1583 92.6623,88.0733 92.9953,87.9663 C93.0783,87.9383 93.1713,87.9123 93.2733,87.8843 C93.3753,87.8633 93.4863,87.8493 93.6063,87.8303 C93.8463,87.7943 94.1223,87.7623 94.4223,87.7793 C94.5733,87.7823 94.7303,87.7923 94.8953,87.8023 C95.0553,87.8263 95.2213,87.8583 95.3943,87.8893 C95.7423,87.9443 96.0853,88.0803 96.4493,88.2103 C96.6253,88.2873 96.7983,88.3783 96.9753,88.4683 C97.1573,88.5513 97.3233,88.6653 97.4893,88.7813 C97.8373,88.9943 98.1363,89.2823 98.4443,89.5573 C98.7183,89.8673 99.0023,90.1683 99.2133,90.5173 C99.3283,90.6843 99.4393,90.8523 99.5223,91.0333 C99.6133,91.2103 99.7003,91.3853 99.7773,91.5603 C99.9043,91.9243 100.0373,92.2683 100.0913,92.6163 C100.1213,92.7883 100.1533,92.9533 100.1753,93.1143 C100.1843,93.2783 100.1943,93.4353 100.1963,93.5863 C100.1943,93.7403 100.2063,93.8723 100.1903,94.0203 C100.1753,94.1663 100.1643,94.3013 100.1443,94.4273 C100.1253,94.5533 100.1103,94.6683 100.0883,94.7743 C100.0593,94.8643 100.0323,94.9463 100.0043,95.0203 C99.8933,95.3183 99.8093,95.4893 99.8093,95.4893 C99.6623,95.7913 99.2973,95.9163 98.9953,95.7693 C98.8893,95.7173 98.8033,95.6363 98.7453,95.5433" id="Fill-5" fill="#FFFFFF"></path>
                <path d="M10.6139,95.4894 C10.6139,95.4894 10.5299,95.3184 10.4199,95.0204 C10.3909,94.9454 10.3639,94.8644 10.3349,94.7734 C10.3129,94.6684 10.2979,94.5534 10.2789,94.4274 C10.2589,94.3014 10.2479,94.1664 10.2329,94.0204 C10.2169,93.8724 10.2289,93.7394 10.2279,93.5864 C10.2289,93.4354 10.2389,93.2784 10.2489,93.1144 C10.2699,92.9534 10.3029,92.7884 10.3319,92.6164 C10.3859,92.2674 10.5189,91.9244 10.6459,91.5604 C10.7229,91.3844 10.8099,91.2104 10.9009,91.0334 C10.9849,90.8524 11.0949,90.6844 11.2099,90.5174 C11.4209,90.1684 11.7049,89.8674 11.9789,89.5574 C12.2869,89.2824 12.5859,88.9944 12.9339,88.7804 C13.1009,88.6654 13.2659,88.5514 13.4479,88.4684 C13.6249,88.3774 13.7979,88.2874 13.9739,88.2094 C14.3379,88.0804 14.6809,87.9444 15.0299,87.8894 C15.2019,87.8584 15.3679,87.8254 15.5279,87.8024 C15.6929,87.7924 15.8499,87.7824 16.0009,87.7784 C16.3009,87.7624 16.5769,87.7944 16.8169,87.8304 C16.9369,87.8494 17.0479,87.8634 17.1499,87.8844 C17.2519,87.9124 17.3449,87.9384 17.4279,87.9654 C17.7609,88.0734 17.9379,88.1574 17.9379,88.1574 C18.2489,88.3054 18.3809,88.6774 18.2339,88.9884 C18.1829,89.0954 18.1049,89.1814 18.0129,89.2424 L17.9379,89.2904 C17.9379,89.2904 17.7829,89.3914 17.5319,89.5284 C17.4709,89.5614 17.4029,89.5964 17.3279,89.6354 C17.2569,89.6834 17.1789,89.7264 17.0979,89.7754 C16.9369,89.8704 16.7579,89.9624 16.5769,90.0894 C16.4859,90.1444 16.3919,90.2014 16.2949,90.2604 C16.2019,90.3294 16.1059,90.3934 16.0089,90.4604 C15.8089,90.5764 15.6279,90.7494 15.4229,90.8784 C15.2379,91.0444 15.0329,91.1824 14.8489,91.3564 C14.6539,91.5144 14.4779,91.6984 14.2889,91.8674 C14.1179,92.0544 13.9309,92.2274 13.7709,92.4224 C13.5929,92.6034 13.4559,92.8094 13.2849,92.9934 C13.1549,93.1974 12.9779,93.3784 12.8609,93.5794 C12.7919,93.6764 12.7289,93.7724 12.6579,93.8654 C12.5979,93.9614 12.5449,94.0574 12.4839,94.1484 C12.3549,94.3374 12.2649,94.4954 12.1699,94.6444 C12.1209,94.7194 12.0769,94.7924 12.0289,94.8614 C11.9889,94.9464 11.9519,95.0254 11.9189,95.0964 C11.7789,95.3814 11.6779,95.5434 11.6779,95.5434 C11.5009,95.8284 11.1249,95.9164 10.8399,95.7394 C10.7399,95.6774 10.6629,95.5884 10.6139,95.4894" id="Fill-7" fill="#FFFFFF"></path>
                <g id="Group-11" transform="translate(0.000000, 0.065000)" fill="#FFFFFF">
                    <path d="M18.8169,77.9975 C17.1259,77.9975 16.2809,76.8905 16.2809,74.6825 C16.2809,62.0095 15.9879,50.2785 15.4039,39.4895 C13.6149,39.1655 11.9429,39.0035 10.3819,39.0035 C8.8229,39.0035 7.4259,39.2635 6.1919,39.7825 C6.1919,43.4865 6.4669,49.0915 7.0189,56.5995 C7.5709,64.1045 7.8489,69.7765 7.8489,73.6095 C7.8489,74.2595 7.6529,74.8615 7.2649,75.4135 C6.8739,75.9665 6.3529,76.2405 5.7039,76.2405 C3.8829,76.2755 2.5519,70.5715 1.7069,59.1335 C0.5679,43.6345 -0.0001,24.8845 -0.0001,2.8845 C-0.0001,1.6825 0.5679,1.0815 1.7069,1.0815 C2.3249,1.0815 2.9909,1.2525 3.7059,1.5925 C4.4199,1.9345 4.9239,2.3005 5.2169,2.6905 C4.9879,5.0625 4.8739,7.5645 4.8739,10.1965 L5.5579,30.7175 L5.4609,34.4705 C5.4609,35.4135 5.5239,36.2745 5.6559,37.0535 L15.3539,36.3215 L14.9649,3.5675 L14.9649,0.9345 C17.4989,0.9345 19.0099,2.0735 19.4989,4.3465 C19.7259,5.4525 19.8389,8.2635 19.8389,12.7805 C19.8389,17.2965 20.1559,26.8755 20.7899,41.5125 C21.4239,56.1535 21.7409,67.1115 21.7409,74.3885 C21.7409,75.2655 21.4639,76.0875 20.9119,76.8515 C20.3599,77.6145 19.6599,77.9975 18.8169,77.9975" id="Fill-9"></path>
                </g>
                <path d="M39.8477,18.5627 L40.1387,42.5437 C39.7497,43.4527 39.5547,44.5917 39.5547,45.9547 L39.5547,47.9547 L39.1637,63.8437 C39.1637,68.4247 40.2867,70.7177 42.5287,70.7177 L46.6717,70.5697 C50.2457,70.5697 52.0337,71.5447 52.0337,73.4947 C52.0337,74.2107 51.7217,74.8017 51.1067,75.2747 C50.4887,75.7447 49.7907,76.0307 49.0117,76.1257 C46.5737,75.3457 43.5987,74.9577 40.0907,74.9577 C39.0187,75.5737 37.9857,75.8827 36.9947,75.8827 C36.0037,75.8827 35.2327,75.5417 34.6807,74.8577 C34.1287,74.1787 33.8507,73.4307 33.8507,72.6177 C33.8507,67.6797 34.0627,60.2457 34.4847,50.3187 C34.9077,40.3907 35.1187,32.9587 35.1187,28.0187 L35.1187,27.2887 C34.7277,23.1287 34.5357,20.0087 34.5357,17.9287 C34.5357,11.6257 35.6867,8.4727 37.9957,8.4727 C38.6777,8.4727 39.2687,8.7167 39.7737,9.2047 C40.2787,9.6917 40.5297,10.2767 40.5297,10.9587 L39.8477,18.5627 Z" id="Fill-12" fill="#FFFFFF"></path>
                <path d="M65.7312,19.7079 L65.9262,39.1559 L65.9262,39.3019 C69.8892,38.7809 71.8732,33.1609 71.8732,22.4369 C71.8732,19.2849 71.4822,17.1419 70.7032,16.0029 C69.8572,14.8009 68.5582,14.1999 66.8042,14.1999 C66.8042,14.1019 66.4442,14.0529 65.7312,14.0529 L65.7312,19.7079 Z M60.7592,30.9179 L60.9052,21.4129 C60.9052,17.3519 60.6462,14.2649 60.1252,12.1529 C60.5802,9.8129 61.4732,8.6429 62.8072,8.6429 L67.1922,8.6429 C71.0282,8.6429 73.7252,10.2359 75.2832,13.4189 C76.6492,16.2469 77.3312,19.4969 77.3312,23.1689 C77.3312,27.8149 77.2172,30.6669 76.9902,31.7219 C76.7632,32.7789 76.5202,33.7779 76.2582,34.7209 C75.9992,35.6639 75.6822,36.4259 75.3102,37.0109 C74.9352,37.5949 74.4572,38.2369 73.8702,38.9369 C73.2862,39.6339 72.6212,40.2289 71.8732,40.7149 C70.2142,41.7869 68.2172,42.6989 65.8762,43.4439 L65.8762,54.1189 L66.6562,73.0309 C66.6562,73.8439 66.3152,74.5339 65.6332,75.1019 C64.9522,75.6729 64.1702,75.9549 63.2932,75.9549 L61.1982,74.7369 C60.3842,71.0649 59.9802,66.1759 59.9802,60.0649 L60.3682,42.2759 C59.9802,41.3959 59.7852,40.5849 59.7852,39.8379 L59.7852,39.4969 C60.4342,38.1969 60.7592,35.3379 60.7592,30.9179 L60.7592,30.9179 Z" id="Fill-14" fill="#FFFFFF"></path>
                <g id="Group-18" transform="translate(85.000000, 7.065000)">
                    <mask id="mask-2" fill="white">
                        <use xlink:href="#path-1"></use>
                    </mask>
                    <g id="Clip-17"></g>
                    <path d="M6.2952,4.6253 L5.9522,6.0383 C5.9522,8.7673 6.0182,12.7093 6.1472,17.8593 C6.2772,23.0093 6.3432,26.7533 6.3432,29.0943 C7.9012,28.2813 9.1612,26.1613 10.1202,22.7333 C11.0792,19.3053 11.5572,16.6803 11.5572,14.8603 C11.5572,13.0413 11.5102,11.7013 11.4122,10.8403 C11.3142,9.9783 11.1032,9.0293 10.7782,7.9883 C10.1282,5.8433 8.6332,4.7233 6.2952,4.6253 L6.2952,4.6253 Z M5.9042,34.0153 L5.8062,44.8363 C5.8062,53.6433 6.4402,60.5803 7.7082,65.6503 L6.5862,68.3313 L3.8072,68.3313 L2.4912,66.8683 C2.5572,63.8803 2.5892,60.5253 2.5892,56.8033 C2.5892,53.0833 2.3032,45.1293 1.7352,32.9433 C1.1672,20.7583 0.8822,11.6603 0.8822,5.6493 C0.8822,2.4973 1.9862,0.9203 4.1972,0.9203 C7.6742,0.9203 10.5982,1.8303 12.9712,3.6503 C15.3432,5.4703 16.5292,8.0703 16.5292,11.4493 L16.5292,18.4683 C16.5292,20.3853 16.1722,22.1323 15.4562,23.7073 C14.7432,25.2843 13.9142,26.9413 12.9712,28.6793 C12.0272,30.4173 11.5102,31.3843 11.4122,31.5803 C11.7692,33.2043 12.4032,36.3883 13.3112,41.1323 C15.2642,51.4983 17.4222,58.9563 19.7942,63.5053 C20.4782,64.8043 20.8192,65.8213 20.8192,66.5513 C20.8192,67.2823 20.6162,67.8983 20.2092,68.4053 C19.8022,68.9073 19.2602,69.1613 18.5762,69.1613 C17.1792,69.1613 15.8392,67.5603 14.5562,64.3583 C13.2722,61.1593 12.2412,57.6083 11.4602,53.7093 C9.0872,41.7823 7.6422,35.2173 7.1222,34.0153 L5.9042,34.0153 Z" id="Fill-16" fill="#FFFFFF" mask="url(#mask-2)"></path>
                </g>
            </g>
        </g>
    </g>
</svg>